<?xml version="1.0" standalone="no"?><!DOCTYPE svg PUBLIC "-//W3C//DTD SVG 1.1//EN" "http://www.w3.org/Graphics/SVG/1.1/DTD/svg11.dtd"><svg t="1584669462613" class="icon" viewBox="0 0 1024 1024" version="1.1" xmlns="http://www.w3.org/2000/svg" p-id="10819" xmlns:xlink="http://www.w3.org/1999/xlink" width="200" height="200"><defs><style type="text/css"></style></defs><path d="M893.990439 439.598899a28.032683 28.032683 0 0 0-28.032684 28.032684v411.026988a75.7061 75.7061 0 0 1-73.920579 77.491622H146.571249a99.453533 99.453533 0 0 1-60.886274-23.211776 72.135058 72.135058 0 0 1-29.4611-54.63695V232.478436A83.383842 83.383842 0 0 1 86.042079 173.199131 94.98973 94.98973 0 0 1 147.285458 145.523552h347.462432a27.497027 27.497027 0 0 0 31.782278-22.67612 27.854131 27.854131 0 0 0-31.782278-31.96083H147.285458a142.306043 142.306043 0 0 0-145.341429 139.270656c-0.357104 0.892761-0.357104 1.964073-0.357104 2.856834v646.001584a126.593456 126.593456 0 0 0 42.673957 96.596698 152.483514 152.483514 0 0 0 103.203128 36.246082h645.465927a129.807394 129.807394 0 0 0 95.168282-36.246082 136.056718 136.056718 0 0 0 34.460559-96.953803L921.84457 469.06a27.854131 27.854131 0 0 0-26.782819-29.103996h-1.071312v-0.357105z" p-id="10820" fill="#1296db"></path><path d="M893.990439 439.598899a28.032683 28.032683 0 0 0-28.032684 28.032684v411.026988a75.7061 75.7061 0 0 1-73.920579 77.491622H146.571249a99.453533 99.453533 0 0 1-60.886274-23.211776 72.135058 72.135058 0 0 1-29.4611-54.63695V232.478436A83.383842 83.383842 0 0 1 86.042079 173.199131 94.98973 94.98973 0 0 1 147.285458 145.523552h347.462432a27.497027 27.497027 0 0 0 31.782278-22.67612 27.854131 27.854131 0 0 0-31.782278-31.96083H147.285458a142.306043 142.306043 0 0 0-145.341429 139.270656c-0.357104 0.892761-0.357104 1.964073-0.357104 2.856834v646.001584a126.593456 126.593456 0 0 0 42.673957 96.596698 152.483514 152.483514 0 0 0 103.203128 36.246082h645.465927a129.807394 129.807394 0 0 0 95.168282-36.246082 136.056718 136.056718 0 0 0 34.460559-96.953803L921.84457 469.06a27.854131 27.854131 0 0 0-26.782819-29.103996h-1.071312v-0.357105z" p-id="10821" fill="#1296db"></path><path d="M985.944782 131.775038L880.241925 26.250733a88.383301 88.383301 0 0 0-63.92166-26.247162 94.632626 94.632626 0 0 0-63.92166 25.890058l-85.347916 101.417606-456.736332 436.738495-1.606969 1.606969-29.996757 260.507548 12.677201 11.070232 254.615328-34.282008 436.917047-457.093437 102.488919-83.026737a93.918417 93.918417 0 0 0 0-129.985946V131.775038h0.535656zM283.877832 585.475984L696.690342 175.341756l139.449209 139.449209-410.669885 412.81251-141.591834-141.770386v-0.357105z m-36.424633 182.658823l8.213398-129.807394 119.987027 120.165579-127.129112 9.641815h-1.071313z m706.887857-573.330869a32.853591 32.853591 0 0 1-9.106158 23.56888l-62.671795 61.779035-151.769305-151.412201 62.136139-62.314691a34.282008 34.282008 0 0 1 46.602104 0l105.702857 105.345753a32.139382 32.139382 0 0 1 9.463263 22.854672l-0.357105 0.178552z" p-id="10822" fill="#1296db"></path></svg>