<?xml version="1.0" standalone="no"?><!DOCTYPE svg PUBLIC "-//W3C//DTD SVG 1.1//EN" "http://www.w3.org/Graphics/SVG/1.1/DTD/svg11.dtd"><svg t="1584670566476" class="icon" viewBox="0 0 1024 1024" version="1.1" xmlns="http://www.w3.org/2000/svg" p-id="15849" xmlns:xlink="http://www.w3.org/1999/xlink" width="200" height="200"><defs><style type="text/css"></style></defs><path d="M499.803022 875.52v-39.367111l-5.279289-0.227556c-48.7424-2.116267-92.228267-24.621511-122.811733-53.475555l23.460978-25.258667c27.761778 25.918578 60.757333 40.937244 100.716089 45.829689l6.166755 0.750933v-131.436089l-4.960711-2.298311c-65.399467-15.633067-115.347911-32.244622-115.347911-88.928711 0-49.334044 45.351822-90.5216 112.867556-94.390044l5.165511-0.295822v-39.298845h32.426666v41.005511l4.960711 0.477867c37.2736 3.640889 75.707733 22.641778 103.446756 45.738667l-23.187911 23.3472c-20.0704-16.748089-50.130489-28.216889-78.597689-34.087823l-6.621867-1.365333v120.103822l5.028978 2.434845c53.703111 13.471289 116.235378 32.995556 116.235378 92.7744 0 10.467556-2.048 30.811022-15.837867 49.789155-17.8176 24.507733-54.499556 39.025778-98.167466 43.121778l-5.006223 0.455111v44.259556l-34.656711 0.341333z m34.816-73.363911l11.901156-1.069511c60.370489-10.126222 66.901333-46.375822 66.901333-61.485511 0-38.525156-43.030756-51.950933-66.1504-59.164445l-12.652089-2.230044v123.949511z m-38.229333-282.692267c-43.076267 2.298311-72.044089 25.486222-72.044089 57.708089 0 33.132089 33.518933 45.056 70.883556 55.296l6.9632 1.888711v-115.188622l-5.802667 0.295822z m440.046933 127.613156c-62.304711-141.152711-238.364444-293.774222-245.76-300.259556-2.412089-2.116267-4.778667-3.640889-7.054222-5.142755a65.444978 65.444978 0 0 1-6.462578-4.664889l-5.506844-4.778667c10.399289 6.098489 21.048889 9.033956 32.995555 9.033956 22.983111 0 43.554133-11.355022 52.6336-28.854045l0.113778-0.318578c77.869511 13.266489 123.790222 35.544178 132.892445 64.512 2.503111 10.626844 12.424533 17.521778 25.486222 17.521778h5.12c6.826667-1.2288 12.925156-5.279289 16.270222-10.740622a16.839111 16.839111 0 0 0 1.547378-15.701333c-5.848178-21.048889-19.979378-39.185067-42.097778-54.0672-21.868089-14.677333-52.110222-26.532978-90.157511-35.339378 26.191644-21.276444 43.781689-44.054756 46.171022-60.165689 2.389333-10.717867-7.168-22.072889-20.48-24.393956a25.304178 25.304178 0 0 0-18.158933 3.845689 22.755556 22.755556 0 0 0-10.148978 13.767111c-1.934222 9.8304-30.037333 37.159822-51.313778 50.016712l-2.616889-2.321067a61.303467 61.303467 0 0 0-47.627377-22.368711c-15.041422 0-28.922311 4.960711-38.365867 13.562311 4.3008-5.233778 7.896178-8.100978 9.193244-8.6016h0.978489l12.060445-10.4448c8.965689-5.757156 18.204444-11.628089 27.283911-19.547022 48.082489-32.403911 97.712356-66.013867 109.681778-94.890667 4.278044-9.193244 6.826667-15.473778 7.054222-19.933867 6.5536-14.791111 3.6864-26.624-8.032711-31.903289-4.551111-3.936711-9.784889-8.283022-22.1184-8.283022-9.216 0-16.156444 1.820444-28.216889 5.961956-25.6 8.192-45.4656 10.24-59.096178 5.893689-13.380267-5.779911-27.0336-13.676089-40.277333-21.276445C644.164267 29.582222 615.697067 13.471289 577.786311 11.764622c-28.4672-1.729422-51.427556 5.666133-73.659733 12.856889-3.117511 0.910222-6.235022 1.934222-9.329778 2.935467l-4.551111 1.592889c-20.571022 7.122489-40.049778 13.880889-66.9696 13.880889-27.989333 0-60.757333-4.232533-83.490133-7.7824h-0.227556c-10.057956-0.796444-19.2512-1.934222-28.216889-2.958223-12.561067-1.501867-24.530489-2.912711-35.521422-2.912711-6.599111 0-12.447289 0-16.042667 1.501867-3.709156-1.911467-7.395556-5.370311-11.104711-10.24-0.364089-0.500622-0.841956-1.092267-1.183289-1.592889C243.3024 13.357511 237.568 5.779911 223.573333 5.779911c-5.484089 0-13.038933 4.255289-17.931377 8.510578l-0.227556 0.295822c-7.7824 8.8064-7.418311 9.534578 6.326044 49.220267l2.161778 5.461333c0 1.820444 0.113778 4.164267 2.275556 6.371556v1.524622c9.329778 42.643911 23.301689 71.611733 43.758933 91.249778l0.113778 0.113777c2.161778 1.911467 4.437333 4.323556 6.599111 6.667378 2.275556 2.434844 4.551111 4.960711 6.917689 6.985956 19.501511 20.48 48.560356 51.154489 62.441244 81.92a20.457244 20.457244 0 0 0-8.738133 1.934222c-2.8672 0.113778-5.484089 0.8192-7.645867 1.319822a18.568533 18.568533 0 0 1-2.980977 0.6144h-0.6144c-6.212267 1.001244-11.605333 4.255289-14.9504 8.920178a18.978133 18.978133 0 0 0-3.231289 15.473778 19.911111 19.911111 0 0 0 10.399289 12.856889c5.279289 2.844444 11.491556 3.868444 17.703822 2.844444 2.639644-0.091022 4.551111-0.6144 6.3488-1.115022 1.547378-0.4096 2.980978-0.796444 4.778666-0.796445 1.820444 0 3.936711 0 6.212267-1.024-0.227556 11.446044-2.730667 19.956622-8.465067 28.2624-2.412089 1.934222-4.073244 3.959467-5.757155 5.870934a46.557867 46.557867 0 0 1-5.233778 5.575111C213.037511 426.666667 128.022756 531.160178 77.915022 647.122489 31.630222 751.616 27.830044 795.056356 27.830044 833.854578c0 22.482489 0 69.176889 34.679467 109.067378 41.733689 47.900444 121.0368 72.590222 235.702045 73.409422 217.9072 1.934222 261.802667 1.934222 379.130311 1.934222h36.363377c112.184889-0.8192 190.395733-25.326933 232.607289-72.704 34.679467-39.094044 36.818489-84.969244 37.910756-109.568l0.113778-2.139022c-0.068267-38.115556-3.754667-83.968-47.900445-186.7776zM701.804089 258.730667c25.486222 0 46.148267 13.653333 46.148267 30.560711 0 16.861867-20.662044 30.560711-46.148267 30.560711-25.508978 0-46.171022-13.698844-46.171022-30.560711 0-16.884622 20.662044-30.560711 46.171022-30.560711zM305.516089 152.234667l-1.6384-1.706667-1.797689-1.524622c-0.6144-0.591644-1.410844-1.501867-2.230044-2.389334l-0.978489-1.046755a143.951644 143.951644 0 0 0-8.874667-8.965689c-12.196978-12.014933-21.617778-31.379911-28.603733-58.9824l10.922666-4.619378 3.504356-0.022755c8.578844 0 19.569778 1.342578 30.173867 2.616889l4.619377 0.523377c7.623111 0.864711 15.519289 1.774933 24.234667 2.503111 34.588444 5.3248 64.329956 8.009956 88.428089 8.009956 34.133333 0 59.050667-8.578844 81.009778-16.156444l4.778666-1.683912c2.571378-0.841956 5.074489-1.661156 7.5776-2.389333l1.115023-0.341333c18.204444-5.893689 33.905778-10.968178 51.700622-10.968178 1.8432 0 3.731911 0.045511 5.643378 0.182044l0.682666 0.022756c27.0336 1.2288 48.241778 13.220978 73.159111 28.785778l1.456356 0.864711 1.820444 1.024c13.676089 7.850667 27.8528 15.951644 42.916978 22.459733l2.002489 0.864711 2.070756 0.659911c9.0112 2.8672 19.000889 4.323556 29.696 4.323556 14.768356 0 31.084089-2.6624 49.7664-8.192-14.768356 18.773333-62.850844 51.2-89.998223 69.472711l-2.230044 1.524622-2.025245 1.752178c-6.462578 5.597867-13.425778 10.080711-21.481244 15.268978l-3.367822 2.161778-9.056711 7.827911c-5.12 2.958222-12.379022 18.090667-20.775823 28.353422H369.095111c-17.476267-36.681956-44.100267-59.778844-63.579022-80.213333z m80.236089 141.016177l-1.706667-17.157688h247.534933s-3.413333 12.447289-2.912711 21.2992c0.6144 11.559822 8.3968 24.120889 8.3968 24.120888l-256.455111-1.752177c0.591644-3.868444 6.735644-15.7696 5.142756-26.510223z m554.461866 540.808534c-0.910222 20.548267-2.412089 54.954667-26.988088 82.648178-33.086578 37.159822-102.172444 57.184711-199.748267 57.912888h-36.181333c-117.191111 0-161.018311 0-378.743467-1.934222-100.078933-0.682667-170.1888-20.866844-202.820267-58.322489-23.9616-27.579733-23.9616-60.734578-23.9616-80.554666 0-33.951289 3.549867-72.430933 46.375822-169.187556 47.217778-109.226667 127.340089-207.598933 231.901867-284.854044l1.683911-1.2288 1.547378-1.388089c3.413333-3.072 6.599111-6.394311 9.511822-9.966934l0.637156-0.705422 4.004978-3.231289 275.296711 1.865956 5.5296 4.778667c3.4816 2.935467 7.190756 5.643378 11.036444 8.123733l0.591645 0.364089 1.820444 1.2288c18.318222 16.019911 178.403556 157.991822 234.450489 284.967822 40.231822 93.707378 44.054756 134.644622 44.145778 168.027022l-0.091023 1.456356z" fill="#1296db" p-id="15850"></path></svg>