<?xml version="1.0" standalone="no"?><!DOCTYPE svg PUBLIC "-//W3C//DTD SVG 1.1//EN" "http://www.w3.org/Graphics/SVG/1.1/DTD/svg11.dtd"><svg t="1584669531597" class="icon" viewBox="0 0 1024 1024" version="1.1" xmlns="http://www.w3.org/2000/svg" p-id="11085" xmlns:xlink="http://www.w3.org/1999/xlink" width="200" height="200"><defs><style type="text/css"></style></defs><path d="M512 0L2.844444 319.715556h1018.311112z m284.444444 384l31.857778 64.284444v384h127.431111V448.284444l31.857778-64.284444z m-254.293333 0l31.857778 64.284444v384h127.431111V448.284444l35.271111-64.284444z m-254.293333 0l33.564444 64.284444v384h126.862222V448.284444l31.857778-64.284444z m-254.862222 0l31.857777 64.284444v384h129.137778V448.284444l30.72-64.284444z m0 512L2.844444 1024h1018.311112l-31.857778-128z m542.72-703.715556a63.715556 63.715556 0 1 1-63.715556-64.284444 63.715556 63.715556 0 0 1 63.715556 64.284444z m0 0" p-id="11086" fill="#1296db"></path></svg>
