<?xml version="1.0" standalone="no"?><!DOCTYPE svg PUBLIC "-//W3C//DTD SVG 1.1//EN" "http://www.w3.org/Graphics/SVG/1.1/DTD/svg11.dtd"><svg t="1584669757113" class="icon" viewBox="0 0 1024 1024" version="1.1" xmlns="http://www.w3.org/2000/svg" p-id="12985" xmlns:xlink="http://www.w3.org/1999/xlink" width="200" height="200"><defs><style type="text/css"></style></defs><path d="M329.91702293 498.9181088c0 75.51661653 61.27874027 136.58342613 136.79150294 136.58342507 75.7285472 0 137.01114027-61.0668096 137.01114026-136.58342507 0-75.28927253-61.27874027-136.5680128-137.01114026-136.5680128-75.51276267 0-136.79150293 61.27874027-136.79150294 136.5680128z m67.18967467-2.18095787c0-41.80810773 31.3040608-75.74010667 69.60182827-75.74010666 38.5174048 0 69.59797547 33.93199893 69.59797546 75.74010666 0 42.02003733-31.07671787 75.7285472-69.59797546 75.7285472-38.29776747 0-69.60182933-33.704656-69.60182827-75.7285472zM781.2210912 362.350096c0-56.46984427 45.52652373-102.43564267 101.56094827-102.43564373 56.24635413 0 101.77287787 45.9657984 101.77287786 102.43564373 0 56.68177493-45.52652373 102.4240832-101.77287786 102.42408213-56.03057067 0-101.56094827-45.74230827-101.56094827-102.42408213zM693.4587456 171.48548907c0-47.7074816 38.9528256-86.44837653 86.67186667-86.44837654 47.93097173 0 86.67186667 38.74089493 86.67186773 86.44837654 0 47.71904107-38.74089493 86.45993707-86.67186773 86.45993706-47.71518827 0-86.67186667-38.74089493-86.67186667-86.45993706zM528.8658144 91.38732053c0-44.65182933 36.33644693-80.98827627 81.20020693-80.98827626s81.42369707 36.33644693 81.42369707 80.98827626c0 44.86376-36.55993707 81.20020693-81.42369707 81.20020694s-81.20020693-36.33644693-81.20020693-81.20020694zM353.33341653 95.75694187c0-38.9528256 31.7394816-70.47267093 70.69616-70.47266987s70.48037653 31.51599147 70.4803776 70.47266987c0 38.96438507-31.527552 70.4842304-70.4803776 70.4842304s-70.69616107-31.51984533-70.69616-70.4842304zM216.53805973 173.6780064a65.1089024 65.1089024 0 0 1 65.22450027-65.22450027c35.89717333 0 65.22450027 29.11154347 65.22450133 65.22450027 0 35.89717333-29.327328 65.01257067-65.22450133 65.01257067-36.1129568-0.0038528-65.22450027-29.11539733-65.22450027-65.01257067zM109.50545173 284.64096213a58.7586944 58.7586944 0 0 1 58.87429227-58.87429226c32.39453973 0 58.6623616 26.26782187 58.6623616 58.87429226 0 32.39453973-26.26782187 58.6623616-58.6623616 58.6623616-32.6064704 0-58.87429227-26.26782187-58.87429227-58.6623616zM53.91030187 431.72843413c0-31.3040608 25.39312747-56.46984427 56.69333546-56.46984426 31.29250133 0 56.6856288 25.16963627 56.68562774 56.46984426s-25.39312747 56.46984427-56.68562774 56.46984427c-31.300208 0-56.6933344-25.16963627-56.69333546-56.46984427zM53.91030187 570.48896427c0-24.291088 19.48219307-43.77328107 43.77328106-43.77328107a43.61914987 43.61914987 0 0 1 43.77328107 43.77328107c0 24.07915733-19.47063253 43.77328107-43.77328107 43.77328106-24.291088 0-43.77328107-19.69412267-43.77328106-43.77328106z" fill="#1296db" p-id="12986"></path><path d="M781.2210912 362.350096v2.18866347h-190.41377173v59.75284053h77.04636906v207.0522432h70.69616V424.2916h63.24776747c18.6074976 24.73036267 47.94253227 40.48257813 80.98827627 40.48257813 56.24635413 0 101.77287787-45.74230827 101.77287893-102.42408213 0-56.46984427-45.52652373-102.43564267-101.77287893-102.43564373-56.03442347-0.0038528-101.56480107 45.9619456-101.56480107 102.43564373zM231.42328747 364.53875947h70.69616v266.80508373H231.42328747z" fill="#1296db" p-id="12987"></path><path d="M60.26051093 663.29910933H227.0421056s20.36074133 203.76924693 305.98525333 230.25285227c285.624512 26.695536 410.82149013-235.72451307 444.9692736-381.70994667 5.47165973 7.43683413 45.9657984 474.5085312-438.40713493 493.7749408-402.28647147-22.32591467-479.32898667-342.3178464-479.32898667-342.3178464z" fill="#1296db" p-id="12988"></path></svg>