<?xml version="1.0" standalone="no"?><!DOCTYPE svg PUBLIC "-//W3C//DTD SVG 1.1//EN" "http://www.w3.org/Graphics/SVG/1.1/DTD/svg11.dtd"><svg t="1584671121993" class="icon" viewBox="0 0 1024 1024" version="1.1" xmlns="http://www.w3.org/2000/svg" p-id="22674" xmlns:xlink="http://www.w3.org/1999/xlink" width="200" height="200"><defs><style type="text/css"></style></defs><path d="M975.013495 866.080323l0 0.005172c0 60.88404-49.353697 110.237737-110.232566 110.237737l-0.005172 0.005172L159.225535 976.328404c-0.005172 0-0.005172-0.005172-0.010343-0.005172-60.878869 0-110.232566-49.353697-110.232566-110.242909l0-661.449697c0-48.705939 39.484768-88.190707 88.197172-88.190707l0.010343 0 356.520081 0 90.362828-64.698182c11.328646-4.110222 23.849374 1.713131 27.969939 13.000404l18.797899 51.697778 167.793778 0c48.702061 0 88.186828 39.484768 88.186828 88.195879l0 66.142384 0.005172 0c48.705939 0 88.190707 39.484768 88.190707 88.195879L975.013495 866.080323 975.013495 866.080323zM137.179798 160.536566l-0.005172 0c-24.353616 0-44.096646 41.792646-44.096646 66.146263s19.74303 44.096646 44.101818 44.096646l31.862949 0L146.993131 270.779475l4.176162 0c0.283152-0.116364 0.465455-0.354263 0.757657-0.465455l264.176485-109.777455L137.179798 160.536566 137.179798 160.536566zM601.906424 164.516202l-23.408485-64.469333-0.03103 22.05996-0.003879-0.005172-78.531232 38.434909-0.196525 0L256.33099 270.778182l398.242909 0L601.906424 164.516202 601.906424 164.516202zM842.73002 204.637091c0-24.357495-19.746909-44.100525-44.095354-44.100525L646.877091 160.536566l54.110384 110.242909L842.724848 270.779475l0.005172 0L842.73002 204.637091 842.73002 204.637091zM886.826667 314.878707 137.179798 314.878707c-0.010343 0-0.010343-0.010343-0.015515-0.010343-16.146101 0-31.070384-4.655838-44.086303-12.227232l0 563.444364c0 36.530424 29.617131 66.141091 66.147556 66.141091l705.545051 0c36.535596 0 66.146263-29.610667 66.146263-66.141091L930.916848 711.742061 842.724848 711.742061c-48.707232 0-88.192-39.479596-88.192-88.192 0-48.702061 39.484768-88.192 88.192-88.192l88.192 0L930.916848 358.974061C930.916848 334.616566 911.175111 314.878707 886.826667 314.878707L886.826667 314.878707zM930.916848 667.646707l0-88.192L842.724848 579.454707c-24.353616 0-44.095354 19.741737-44.095354 44.095354 0 24.358788 19.741737 44.096646 44.095354 44.096646L930.916848 667.646707 930.916848 667.646707z" p-id="22675" fill="#1296db"></path><path d="M585.19402 118.489212 576.174545 91.151515 575.025131 123.783758Z" p-id="22676" fill="#1296db"></path></svg>