<?xml version="1.0" standalone="no"?><!DOCTYPE svg PUBLIC "-//W3C//DTD SVG 1.1//EN" "http://www.w3.org/Graphics/SVG/1.1/DTD/svg11.dtd"><svg t="1584670972494" class="icon" viewBox="0 0 1024 1024" version="1.1" xmlns="http://www.w3.org/2000/svg" p-id="17941" xmlns:xlink="http://www.w3.org/1999/xlink" width="200" height="200"><defs><style type="text/css"></style></defs><path d="M826.777685 92.927459l-629.558439 0c-78.890768 0-143.080719 64.191998-143.080719 143.081743l0 515.096525c0 78.888721 64.189951 143.078673 143.080719 143.078673l629.558439 0c78.890768 0 143.081743-64.190975 143.081743-143.078673L969.859427 236.009202C969.859427 157.119457 905.668453 92.927459 826.777685 92.927459zM197.220269 150.158928l629.558439 0c47.341215 0 85.850274 38.510082 85.850274 85.850274l0 27.637454L111.371018 263.646656l0-27.637454C111.371018 188.667987 149.880077 150.158928 197.220269 150.158928zM826.777685 836.95293l-629.558439 0c-47.340191 0-85.84925-38.510082-85.84925-85.848227L111.369995 321.857429l801.25694 0 0 429.247274C912.627958 798.442848 874.118899 836.95293 826.777685 836.95293zM225.863632 236.037854c15.761985 0 28.560476-12.828167 28.560476-28.644387 0-15.791661-12.798491-28.616758-28.560476-28.616758-15.817244 0-28.644387 12.825097-28.644387 28.616758C197.220269 223.210711 210.046389 236.037854 225.863632 236.037854zM312.132438 236.037854c15.817244 0 28.588105-12.828167 28.588105-28.644387 0-15.791661-12.769838-28.616758-28.588105-28.616758-15.789615 0-28.617781 12.825097-28.617781 28.616758C283.51568 223.210711 296.343847 236.037854 312.132438 236.037854zM398.42785 236.037854c15.818267 0 28.644387-12.828167 28.644387-28.644387 0-15.791661-12.828167-28.616758-28.644387-28.616758-15.788591 0-28.615735 12.825097-28.615735 28.616758C369.812115 223.210711 382.639259 236.037854 398.42785 236.037854z" p-id="17942" fill="#1296db"></path><path d="M365.435435 523.050684 327.993684 523.050684c-20.678972 0-37.440727 16.762779-37.440727 37.440727l0 187.204659 112.323205 0L402.876162 560.492434C402.877185 539.814486 386.114406 523.050684 365.435435 523.050684zM365.435435 691.534979c0 10.337439-8.381901 18.721387-18.720364 18.721387-10.340509 0-18.720364-8.383948-18.720364-18.721387L327.994708 579.213821c0-10.341532 8.378831-18.721387 18.720364-18.721387 10.338463 0 18.720364 8.378831 18.720364 18.721387L365.435435 691.534979zM515.20039 373.286752l-37.44175 0c-20.678972 0-37.440727 16.761756-37.440727 37.440727l0 336.968591 112.323205 0L552.641117 410.728502C552.641117 390.04953 535.878338 373.286752 515.20039 373.286752zM515.20039 691.534979c0 10.337439-8.382924 18.721387-18.720364 18.721387-10.341532 0-18.720364-8.383948-18.720364-18.721387L477.759663 429.448866c0-10.337439 8.378831-18.720364 18.720364-18.720364 10.337439 0 18.720364 8.382924 18.720364 18.720364L515.20039 691.534979zM664.963299 448.169229l-37.44175 0c-20.678972 0-37.440727 16.762779-37.440727 37.440727l0 262.087137 112.323205 0L702.404026 485.609956C702.404026 464.932008 685.642271 448.169229 664.963299 448.169229zM664.963299 691.534979c0 10.337439-8.382924 18.721387-18.720364 18.721387-10.338463 0-18.720364-8.383948-18.720364-18.721387L627.522572 504.33032c0-10.340509 8.381901-18.720364 18.720364-18.720364 10.337439 0 18.720364 8.379854 18.720364 18.720364L664.963299 691.534979z" p-id="17943" fill="#1296db"></path></svg>