<?xml version="1.0" encoding="UTF-8"?>
<svg width="90px" height="90px" viewBox="0 0 90 90" version="1.1" xmlns="http://www.w3.org/2000/svg" xmlns:xlink="http://www.w3.org/1999/xlink">
    <!-- Generator: Sketch 50.2 (55047) - http://www.bohemiancoding.com/sketch -->
    <title>Group 5</title>
    <desc>Created with Sketch.</desc>
    <defs>
        <linearGradient x1="50%" y1="0%" x2="50%" y2="100%" id="linearGradient-1">
            <stop stop-color="#36A4FF" offset="0%"></stop>
            <stop stop-color="#004885" offset="100%"></stop>
        </linearGradient>
    </defs>
    <g id="Page-1" stroke="none" stroke-width="1" fill="none" fill-rule="evenodd">
        <g id="首页选择状态" transform="translate(-1405.000000, -160.000000)">
            <g id="Group-5" transform="translate(1405.000000, 160.000000)">
                <circle id="Oval-Copy-7" fill="url(#linearGradient-1)" cx="45" cy="45" r="45"></circle>
                <g id="电商数据互通-copy" transform="translate(23.000000, 26.000000)" fill="#FFFFFF" fill-rule="nonzero" stroke="#FFFFFF" stroke-width="0.4">
                    <g id="Group">
                        <path d="M42.4612626,27.7032491 C42.3713789,27.454892 42.1757958,27.2593088 41.9274385,27.1694251 L38.1016988,23.6105974 L37.3899332,24.4113336 L40.3259661,27.0804544 L29.0266882,27.0804544 L24.5781536,21.8311836 C24.3042401,21.4232407 23.751488,21.3145891 23.3435407,21.5885026 C22.9355978,21.8624162 22.8269463,22.4151683 23.1008598,22.8231156 C23.1415082,22.8836535 23.1894446,22.9389649 23.2435905,22.9878048 L27.9590371,28.5039877 C28.1444292,28.6949371 28.4055682,28.7928643 28.6708026,28.7708997 L40.3259633,28.7708997 L37.3899304,31.4400205 L38.101696,32.2407567 L41.9274357,28.681929 C42.1757929,28.5920453 42.3713761,28.3964621 42.4612598,28.1481049 L42.8171426,27.9701635 L42.4612626,27.7032491 Z" id="Shape"></path>
                        <path d="M14.079612,28.8598681 C14.3596539,28.8598682 14.6233524,28.7280186 14.7913775,28.5039854 L29.1156588,11.0657298 L40.325966,11.0657298 L37.3899332,13.7348505 L38.1016987,14.5355868 L41.9274385,10.9767591 C42.1757957,10.8868754 42.3713788,10.6912922 42.4612626,10.442935 L42.8171454,10.1760229 L42.4612626,9.9091108 C42.3713789,9.66075363 42.1757957,9.46517047 41.9274385,9.37528671 L38.1016987,5.81645904 L37.3899332,6.61719527 L40.325966,9.28631602 L28.6708054,9.28631602 C28.3907634,9.28631603 28.1270649,9.41816558 27.9590398,9.64219879 L13.7237291,27.0804544 L6.25019102,27.0804544 C6.003056,25.3785006 4.42301103,24.199144 2.7210573,24.4462768 C1.01910358,24.6934118 -0.160252989,26.2734567 0.0868797892,27.9754105 C0.334014792,29.6773642 1.91405976,30.8567208 3.61601349,30.609588 C4.64836823,30.4596835 5.53707979,29.8028073 5.98327893,28.8598681 L14.079612,28.8598681 Z M3.22518758,28.8598681 C2.48813206,28.8598681 1.89062714,28.2623632 1.89062714,27.5253078 C1.89062717,26.7882523 2.48813206,26.1907474 3.22518752,26.1907474 C3.96224297,26.1907474 4.55974789,26.7882523 4.55974789,27.5253078 C4.55974789,28.2623632 3.96224297,28.8598681 3.22518752,28.8598681 Z" id="Shape"></path>
                        <path d="M3.22518758,13.7348505 C4.75144097,13.7068558 6.03237426,12.576619 6.2501912,11.0657298 L13.8127,11.0657298 L17.4604984,16.2260299 C17.6285234,16.4500632 17.892222,16.5819127 18.1722639,16.5819127 L18.7950588,16.4039714 C19.1881558,16.1091486 19.267823,15.5514764 18.9730002,15.1583816 L15.0582898,9.64219874 C14.8902647,9.41816554 14.6265662,9.28631598 14.3465242,9.28631598 L5.98327922,9.28631598 L5.98327931,9.28631617 C5.24595139,7.73259318 3.38868819,7.070768 1.83495964,7.80809593 C0.281236647,8.54542385 -0.380588526,10.402687 0.3567394,11.9564156 C0.880880759,13.0609089 2.00282509,13.7565151 3.22518231,13.7348508 L3.22518758,13.7348505 Z M3.22518758,9.28631595 C3.96224297,9.28631592 4.55974789,9.88382088 4.55974789,10.6208763 C4.55974793,11.3579318 3.96224297,11.9554367 3.22518752,11.9554367 C2.48813206,11.9554367 1.89062714,11.3579318 1.89062714,10.6208763 L1.89062714,10.6208765 C1.89062703,9.88382108 2.48813206,9.28631615 3.22518752,9.28631615 L3.22518758,9.28631595 Z M33.4752228,31.1731061 L33.4752232,31.1731056 C27.2141888,37.8311717 16.7411707,38.1530788 10.0831046,31.8920277 C9.83615752,31.6598076 9.5964043,31.4200544 9.36418245,31.1731056 C8.93827979,30.9280487 8.39435747,31.0746535 8.14930438,31.5005562 C8.00292479,31.7549601 7.99143478,32.065192 8.11859442,32.3297241 L8.11859429,32.329724 C15.0565288,39.7002785 26.6558047,40.0510454 34.0264149,33.113122 C34.2953816,32.8599442 34.5566324,32.5986929 34.8098129,32.329724 C35.1537731,31.9611951 35.1338564,31.3836096 34.7653276,31.0396489 C34.3967988,30.6956888 33.8192133,30.7156054 33.4752526,31.0841343 C33.4752526,31.0841343 33.4752526,31.0841343 33.4752526,31.0841343 L33.4752228,31.1731061 Z M8.65239977,7.41793143 C8.88707721,7.41458876 9.11092747,7.31865292 9.27519461,7.15101935 L9.27519401,7.15102001 C15.4569333,0.419219441 25.9253917,-0.0266905446 32.6571923,6.15502648 C33.0031743,6.47273749 33.3354715,6.80503524 33.6531858,7.15102001 C33.9270999,7.55896293 34.4798515,7.6676145 34.8877988,7.39370099 C35.2957416,7.11978692 35.4043932,6.56703537 35.1304797,6.15908806 C35.0898313,6.09855018 35.0418949,6.04323877 34.987749,5.99439886 L34.9877488,5.99439869 C28.155745,-1.47446845 16.5625859,-1.99072089 9.09377431,4.8412996 C8.69249036,5.20836766 8.30774606,5.59311307 7.94067522,5.99439869 C7.59666676,6.34526068 7.60222243,6.90856694 7.95308435,7.25257211 C8.11631721,7.41261649 8.3348904,7.50368856 8.56346779,7.50689929 L8.65239977,7.41793143 Z" id="Shape"></path>
                    </g>
                </g>
            </g>
        </g>
    </g>
</svg>