<?xml version="1.0" encoding="UTF-8"?>
<svg width="90px" height="90px" viewBox="0 0 90 90" version="1.1" xmlns="http://www.w3.org/2000/svg" xmlns:xlink="http://www.w3.org/1999/xlink">
    <!-- Generator: Sketch 50.2 (55047) - http://www.bohemiancoding.com/sketch -->
    <title>Group 4</title>
    <desc>Created with Sketch.</desc>
    <defs>
        <linearGradient x1="50%" y1="0%" x2="50%" y2="100%" id="linearGradient-1">
            <stop stop-color="#36A4FF" offset="0%"></stop>
            <stop stop-color="#004885" offset="100%"></stop>
        </linearGradient>
    </defs>
    <g id="Page-1" stroke="none" stroke-width="1" fill="none" fill-rule="evenodd">
        <g id="首页选择状态" transform="translate(-1079.000000, -160.000000)">
            <g id="Group-4" transform="translate(1079.000000, 160.000000)">
                <circle id="Oval-Copy-6" fill="url(#linearGradient-1)" cx="45" cy="45" r="45"></circle>
                <g id="模块化-copy" transform="translate(26.000000, 23.000000)" fill="#FFFFFF" fill-rule="nonzero">
                    <path d="M20.7773977,44.1275358 C20.5845263,44.1275358 20.4880903,44.1275358 20.2952183,44.0301725 C20.0059108,43.8354465 19.8130388,43.5433567 19.8130388,43.2512697 L19.7166028,28.2573306 C19.7166028,27.9652414 19.9094743,27.5757899 20.1987823,27.4784278 L36.4964182,17.7421008 C36.7857257,17.5473748 37.171468,17.5473748 37.4607782,17.7421008 C37.7500857,17.9368268 37.9429577,18.2289166 37.9429577,18.5210037 L38.0393937,33.417553 C38.0393937,33.7096423 37.8465222,34.0990937 37.5572142,34.1964558 L21.2595783,43.835393 C21.1631423,44.030119 20.9702708,44.1274823 20.7773988,44.1274823 L20.7773977,44.1275358 Z M21.6453228,28.7441481 L21.7417588,41.4987297 L36.2071588,32.9307488 L36.1107228,20.1761671 L21.6453228,28.7441481 Z M16.3413537,44.1275358 C16.1484823,44.1275358 15.8591743,44.0301725 15.7627388,43.9328098 L1.58667084,31.4703422 C1.39379939,31.2756162 1.29736339,31.0808897 1.29736339,30.7888015 L1.20092739,15.8922522 C1.20092739,15.5027997 1.39379884,15.2107115 1.7795423,15.0159817 C2.06884975,14.8212557 2.45459211,14.9186184 2.7439023,15.1133449 L16.8235627,27.5758125 C17.0164341,27.7705385 17.1128701,27.9652651 17.1128701,28.2573532 L17.2093061,43.1539026 C17.2093061,43.5433551 17.0164347,43.8354432 16.6306912,44.0301731 C16.6306912,44.0301731 16.5342552,44.1275363 16.3413838,44.1275363 L16.3413537,44.1275358 Z M3.12963483,30.3993325 L15.3770047,41.1092811 L15.2805687,28.7441481 L3.03319883,18.0341995 L3.12963483,30.3993325 Z M18.1736443,25.0443637 C17.9807728,25.0443637 17.6914648,24.9470004 17.5950294,24.8496377 L3.4189614,12.4845047 C3.22608995,12.2897787 3.03321794,11.9976889 3.12965394,11.7056018 C3.22608995,11.4135126 3.3225254,11.1214233 3.6118334,11.0240612 L19.9094694,1.38512396 C20.2952128,1.19039797 20.6809541,1.19039797 20.9702643,1.48248723 L35.1463323,13.8476202 C35.3392037,14.0423462 35.5320757,14.334436 35.4356397,14.6265231 C35.3392037,14.9186123 35.2427683,15.2107016 34.9534603,15.3080638 L18.6558243,24.947001 C18.4629528,24.947001 18.2700808,25.0443642 18.1736448,25.0443642 L18.1736443,25.0443637 Z M5.54053483,11.9003333 L18.1736443,22.9997306 L32.7354519,14.3344151 L20.1988047,3.23501781 L5.54053483,11.9003333 Z" id="Shape"></path>
                </g>
            </g>
        </g>
    </g>
</svg>