<?xml version="1.0" encoding="UTF-8"?>
<svg width="90px" height="90px" viewBox="0 0 90 90" version="1.1" xmlns="http://www.w3.org/2000/svg" xmlns:xlink="http://www.w3.org/1999/xlink">
    <!-- Generator: Sketch 50.2 (55047) - http://www.bohemiancoding.com/sketch -->
    <title>Group 5</title>
    <desc>Created with Sketch.</desc>
    <defs></defs>
    <g id="Page-1" stroke="none" stroke-width="1" fill="none" fill-rule="evenodd">
        <g id="首页-copy-2" transform="translate(-1078.000000, -875.000000)">
            <g id="Group-5" transform="translate(1078.000000, 875.000000)">
                <circle id="Oval-Copy-2" fill="#C3E4FF" cx="45" cy="45" r="45"></circle>
                <g id="模块化" transform="translate(27.000000, 24.000000)" fill="#004885" fill-rule="nonzero">
                    <path d="M19.7773977,43.1275358 C19.5845263,43.1275358 19.4880903,43.1275358 19.2952183,43.0301725 C19.0059108,42.8354465 18.8130388,42.5433567 18.8130388,42.2512697 L18.7166028,27.2573306 C18.7166028,26.9652414 18.9094743,26.5757899 19.1987823,26.4784278 L35.4964182,16.7421008 C35.7857257,16.5473748 36.171468,16.5473748 36.4607782,16.7421008 C36.7500857,16.9368268 36.9429577,17.2289166 36.9429577,17.5210037 L37.0393937,32.417553 C37.0393937,32.7096423 36.8465222,33.0990937 36.5572142,33.1964558 L20.2595783,42.835393 C20.1631423,43.030119 19.9702708,43.1274823 19.7773988,43.1274823 L19.7773977,43.1275358 Z M20.6453228,27.7441481 L20.7417588,40.4987297 L35.2071588,31.9307488 L35.1107228,19.1761671 L20.6453228,27.7441481 Z M15.3413537,43.1275358 C15.1484823,43.1275358 14.8591743,43.0301725 14.7627388,42.9328098 L0.586670842,30.4703422 C0.393799388,30.2756162 0.297363388,30.0808897 0.297363388,29.7888015 L0.200927388,14.8922522 C0.200927388,14.5027997 0.393798842,14.2107115 0.779542296,14.0159817 C1.06884975,13.8212557 1.45459211,13.9186184 1.7439023,14.1133449 L15.8235627,26.5758125 C16.0164341,26.7705385 16.1128701,26.9652651 16.1128701,27.2573532 L16.2093061,42.1539026 C16.2093061,42.5433551 16.0164347,42.8354432 15.6306912,43.0301731 C15.6306912,43.0301731 15.5342552,43.1275363 15.3413838,43.1275363 L15.3413537,43.1275358 Z M2.12963483,29.3993325 L14.3770047,40.1092811 L14.2805687,27.7441481 L2.03319883,17.0341995 L2.12963483,29.3993325 Z M17.1736443,24.0443637 C16.9807728,24.0443637 16.6914648,23.9470004 16.5950294,23.8496377 L2.4189614,11.4845047 C2.22608995,11.2897787 2.03321794,10.9976889 2.12965394,10.7056018 C2.22608995,10.4135126 2.3225254,10.1214233 2.6118334,10.0240612 L18.9094694,0.385123961 C19.2952128,0.190397974 19.6809541,0.190397974 19.9702643,0.48248723 L34.1463323,12.8476202 C34.3392037,13.0423462 34.5320757,13.334436 34.4356397,13.6265231 C34.3392037,13.9186123 34.2427683,14.2107016 33.9534603,14.3080638 L17.6558243,23.947001 C17.4629528,23.947001 17.2700808,24.0443642 17.1736448,24.0443642 L17.1736443,24.0443637 Z M4.54053483,10.9003333 L17.1736443,21.9997306 L31.7354519,13.3344151 L19.1988047,2.23501781 L4.54053483,10.9003333 Z" id="Shape"></path>
                </g>
            </g>
        </g>
    </g>
</svg>