<?xml version="1.0" encoding="UTF-8"?>
<svg width="90px" height="90px" viewBox="0 0 90 90" version="1.1" xmlns="http://www.w3.org/2000/svg" xmlns:xlink="http://www.w3.org/1999/xlink">
    <!-- Generator: Sketch 50.2 (55047) - http://www.bohemiancoding.com/sketch -->
    <title>Group 3</title>
    <desc>Created with Sketch.</desc>
    <defs></defs>
    <g id="Page-1" stroke="none" stroke-width="1" fill="none" fill-rule="evenodd">
        <g id="首页-copy-2" transform="translate(-425.000000, -875.000000)">
            <g id="Group-3" transform="translate(425.000000, 875.000000)">
                <circle id="Oval" fill="#C3E4FF" cx="45" cy="45" r="45"></circle>
                <g id="志愿定制报告n" transform="translate(26.000000, 23.000000)" fill="#004885" fill-rule="nonzero" stroke="#004885" stroke-width="0.4">
                    <path d="M38.9999133,32.3286146 C38.9999133,32.6304982 38.8787423,32.8375683 38.6406473,32.9582008 L19.8635565,43.0319248 L19.7725482,43.0319248 C19.7120493,43.0921979 19.6212144,43.1225071 19.4999567,43.1225071 C19.3787856,43.1225071 19.2877773,43.0922842 19.2271918,43.0319248 L19.1405172,43.0319248 L0.36351312,32.9582008 C0.12117104,32.8375683 -4.54747351e-13,32.6304982 -4.54747351e-13,32.3286146 L-4.54747351e-13,10.654824 C-4.54747351e-13,10.5986957 0.0302494227,10.5341051 0.0909216173,10.4737456 L0.0909216173,10.3830769 L0.272764852,10.2019986 L0.363686469,10.1114162 L19.1406906,0.0420961807 C19.3783522,-0.0140320602 19.6259815,-0.0140320602 19.8636431,0.0420961807 L38.6407339,10.1157338 L38.7316556,10.2064025 L38.9134988,10.3874808 L38.9134988,10.4780632 L39,10.654824 L38.9999133,32.3286146 Z M1.44564505,31.8801932 L18.7770908,41.2337486 L18.7770908,21.2674654 L1.44564505,11.9139099 L1.44564505,31.8801932 Z M2.25943253,10.74532 L19.4999567,20.0082067 L36.7404808,10.74532 L19.4999567,1.48234684 L2.25943253,10.74532 Z M37.5542683,31.8801932 L37.5542683,11.9139099 L20.2228225,21.2674654 L20.2228225,41.2337486 L37.5542683,31.8801932 Z M23.0859434,13.9774431 L21.9601275,13.9774431 L21.1552675,11.8254864 L17.8695214,11.8254864 L17.1105123,13.9774431 L15.9846964,13.9774431 L18.9903969,6.1157763 L20.0805029,6.1157763 L23.0859434,13.9774431 Z M20.8393387,10.9373649 L19.6471301,7.6688879 C19.60986,7.56405762 19.5690363,7.38133861 19.5249189,7.12073087 L19.4995233,7.12073087 C19.4620799,7.35759204 19.4197827,7.54031105 19.372285,7.6688879 L18.1903907,10.9373649 L20.8393387,10.9373649 Z M7.0774115,29.2649626 L7.0774115,21.4032957 L9.39534935,21.4032957 C10.0881391,21.4032957 10.6416429,21.5682264 11.0561207,21.8981741 C11.4704251,22.2280355 11.6775773,22.665404 11.6775773,23.210107 C11.6775773,23.6433307 11.5544127,24.0256072 11.308257,24.3571955 C11.0619279,24.6887839 10.7232903,24.9239181 10.291911,25.062598 L10.291911,25.0828042 C10.8284266,25.1437681 11.2572923,25.3460024 11.5781616,25.6894209 C11.8990308,26.032753 12.0596388,26.4683945 12.0596388,26.9961727 C12.0596388,27.6729929 11.8159099,28.2202001 11.3285388,28.6381396 C10.8411678,29.0560792 10.2171976,29.2649626 9.45636825,29.2649626 L7.0774115,29.2649626 Z M8.09635767,22.2914172 L8.09635767,24.7529428 L9.0234288,24.7529428 C9.515827,24.7529428 9.9022222,24.6336919 10.1823544,24.39519 C10.4625733,24.1566882 10.6025527,23.825877 10.6025527,23.4029291 C10.6025527,22.6618636 10.1066875,22.2914172 9.11504382,22.2914172 L8.09635767,22.2914172 Z M8.09635767,25.6360559 L8.09635767,28.3768411 L9.31898906,28.3768411 C9.85203763,28.3768411 10.2639152,28.2542225 10.5543616,28.0088125 C10.8447214,27.7635753 10.989988,27.422661 10.989988,26.986156 C10.989988,26.0862044 10.3769388,25.6360559 9.15092708,25.6360559 L8.09635767,25.6360559 Z M32.5552261,29.1466615 C31.9747666,29.4518264 31.2464402,29.6047543 30.3701604,29.6056178 C29.239144,29.6067404 28.3353883,29.2498511 27.65898,28.5348637 C26.9823117,27.8198762 26.6435875,26.8737268 26.6423741,25.696329 C26.641074,24.4309394 27.0202752,23.4120823 27.7804111,22.6397577 C28.540287,21.8676058 29.5061883,21.4809254 30.6778551,21.4798028 C31.4318371,21.479112 32.0552006,21.5848922 32.5478588,21.7976614 L32.5488989,22.8583988 C31.9848208,22.5477074 31.3648377,22.3926207 30.6889494,22.3933979 C29.809376,22.3942614 29.0930107,22.6868191 28.540027,23.2710709 C27.9869566,23.8552364 27.7110715,24.6431042 27.7120249,25.6343289 C27.7129783,26.5750382 27.9717019,27.3217165 28.488629,27.8743638 C29.005296,28.4270111 29.681531,28.702903 30.5169871,28.7021258 C31.2980983,28.7013487 31.9771935,28.5247606 32.5542727,28.1722752 L32.5552261,29.1466615 Z" id="Shape"></path>
                </g>
            </g>
        </g>
    </g>
</svg>