<?xml version="1.0" standalone="no"?><!DOCTYPE svg PUBLIC "-//W3C//DTD SVG 1.1//EN" "http://www.w3.org/Graphics/SVG/1.1/DTD/svg11.dtd"><svg t="1584669819657" class="icon" viewBox="0 0 1107 1024" version="1.1" xmlns="http://www.w3.org/2000/svg" p-id="13872" xmlns:xlink="http://www.w3.org/1999/xlink" width="216.2109375" height="200"><defs><style type="text/css"></style></defs><path d="M1089.46349 18.957838c10.987243 11.291676 16.909838 26.568649 16.771459 42.343784v719.567567a59.225946 59.225946 0 0 1-58.672432 59.724108H58.129436A59.225946 59.225946 0 0 1 0.010517 780.288V60.692757A59.225946 59.225946 0 0 1 58.682949 0.996324h988.879568a58.838486 58.838486 0 0 1 41.900973 17.961514zM1002.119057 766.339459a29.834378 29.834378 0 0 0 29.696-29.862054V104.946162c0-16.328649-13.367351-29.696-29.696-29.696H103.98803c-16.328649 0-29.696 13.367351-29.696 29.696v631.697297c0 16.328649 13.367351 29.696 29.696 29.696h898.131027zM885.521436 193.923459h-0.138379v-1.494486a56.596757 56.596757 0 0 1 49.594811 67.888432 55.268324 55.268324 0 0 1-61.772108 46.771892l-155.814054 206.737298c4.151351 12.177297 4.151351 25.267892 0 37.445189-0.276757 0.885622-0.581189 1.937297-1.024 2.822919a55.129946 55.129946 0 0 1-71.901405 30.443243 56.956541 56.956541 0 0 1-32.214487-72.925405l-187.142919-148.369298c-10.544432 6.088649-23.026162 8.302703-35.065081 6.53146l-119.282162 190.851459c8.330378 11.900541 11.762162 26.43027 9.824865 40.683243-0.138378 0.304432-0.138378 0.470486-0.138379 0.747244a55.129946 55.129946 0 0 1-62.989837 46.052324h-0.138379a56.652108 56.652108 0 0 1-46.633513-65.037838 55.711135 55.711135 0 0 1 63.10054-46.799567l120.306162-188.028541a58.035892 58.035892 0 0 1-8.441081-46.771892c0-0.166054 0.138378-0.470486 0.138379-0.608865a55.212973 55.212973 0 0 1 65.785081-41.873297 57.177946 57.177946 0 0 1 41.153729 67.860757l188.60973 153.433946a53.192649 53.192649 0 0 1 41.596541 0l149.282594-197.82573a56.596757 56.596757 0 0 1 46.771892-88.534487h6.53146z m-21.974487 818.092973H267.966409c-20.064865 0-36.393514-16.356324-36.393514-36.393513 0-20.064865 16.328649-36.393514 36.393514-36.393514h595.58054c20.037189 0 36.393514 16.328649 36.393514 36.393514 0 20.037189-16.328649 36.365838-36.393514 36.365838z" fill="#1296db" p-id="13873"></path></svg>